<svg xmlns="http://www.w3.org/2000/svg" xmlns:xlink="http://www.w3.org/1999/xlink" width="143" zoomAndPan="magnify" viewBox="0 0 107.25 30.000001" height="40" preserveAspectRatio="xMidYMid meet" version="1.0"><defs><g/><clipPath id="65c50115e5"><path d="M 1.367188 2 L 31 2 L 31 29 L 1.367188 29 Z M 1.367188 2 " clip-rule="nonzero"/></clipPath></defs><path fill="#e0e0e0" d="M 23.445312 2.929688 C 19.828125 2.921875 15.480469 4.710938 11.628906 7.507812 C 15.039062 5.191406 18.785156 3.738281 21.933594 3.742188 C 27.832031 3.753906 29.410156 8.882812 25.453125 15.199219 C 21.5 21.511719 13.507812 26.625 7.605469 26.613281 C 4.457031 26.605469 2.539062 25.144531 2.039062 22.820312 C 2.382812 25.625 4.480469 27.421875 8.097656 27.429688 C 14.417969 27.441406 22.976562 21.964844 27.214844 15.199219 C 31.453125 8.433594 29.765625 2.941406 23.445312 2.929688 Z M 23.445312 2.929688 " fill-opacity="1" fill-rule="nonzero"/><g clip-path="url(#65c50115e5)"><path fill="#e0e0e0" d="M 17.808594 3.625 C 26.433594 0.183594 32.117188 3.722656 29.851562 11.035156 C 27.710938 18.28125 18.257812 26.410156 10.304688 27.855469 C 5.203125 28.851562 1.578125 26.867188 1.382812 22.898438 C 1.78125 27.25 6.320312 29.03125 12.328125 27.105469 C 21.359375 24.304688 30.195312 14.738281 30.011719 7.953125 C 29.925781 2.828125 24.710938 1.007812 17.808594 3.625 Z M 17.808594 3.625 " fill-opacity="1" fill-rule="nonzero"/></g><g fill="#e0e0e0" fill-opacity="1"><g transform="translate(36.325541, 17.082556)"><g><path d="M 3.578125 0 L 2.15625 0 C 2.050781 0 1.972656 -0.0234375 1.921875 -0.078125 C 1.867188 -0.128906 1.84375 -0.207031 1.84375 -0.3125 L 1.84375 -4.609375 L 0.5625 -4.609375 C 0.445312 -4.609375 0.363281 -4.632812 0.3125 -4.6875 C 0.269531 -4.738281 0.25 -4.816406 0.25 -4.921875 L 0.25 -5.984375 C 0.25 -6.097656 0.269531 -6.175781 0.3125 -6.21875 C 0.363281 -6.269531 0.445312 -6.296875 0.5625 -6.296875 L 5.1875 -6.296875 C 5.289062 -6.296875 5.367188 -6.269531 5.421875 -6.21875 C 5.472656 -6.175781 5.5 -6.097656 5.5 -5.984375 L 5.5 -4.921875 C 5.5 -4.816406 5.472656 -4.738281 5.421875 -4.6875 C 5.367188 -4.632812 5.289062 -4.609375 5.1875 -4.609375 L 3.890625 -4.609375 L 3.890625 -0.3125 C 3.890625 -0.207031 3.863281 -0.128906 3.8125 -0.078125 C 3.769531 -0.0234375 3.691406 0 3.578125 0 Z M 3.578125 0 "/></g></g></g><g fill="#e0e0e0" fill-opacity="1"><g transform="translate(42.06687, 17.082556)"><g><path d="M 5.9375 -1.65625 C 5.9375 -1.382812 5.894531 -1.140625 5.8125 -0.921875 C 5.738281 -0.703125 5.597656 -0.515625 5.390625 -0.359375 C 5.191406 -0.203125 4.914062 -0.0820312 4.5625 0 C 4.21875 0.0820312 3.773438 0.125 3.234375 0.125 C 2.691406 0.125 2.238281 0.0820312 1.875 0 C 1.519531 -0.0820312 1.242188 -0.203125 1.046875 -0.359375 C 0.847656 -0.515625 0.707031 -0.703125 0.625 -0.921875 C 0.539062 -1.140625 0.5 -1.382812 0.5 -1.65625 L 0.5 -4.640625 C 0.5 -4.910156 0.539062 -5.15625 0.625 -5.375 C 0.707031 -5.59375 0.847656 -5.78125 1.046875 -5.9375 C 1.242188 -6.09375 1.519531 -6.210938 1.875 -6.296875 C 2.238281 -6.390625 2.691406 -6.4375 3.234375 -6.4375 C 3.773438 -6.4375 4.21875 -6.390625 4.5625 -6.296875 C 4.914062 -6.210938 5.191406 -6.09375 5.390625 -5.9375 C 5.597656 -5.78125 5.738281 -5.59375 5.8125 -5.375 C 5.894531 -5.15625 5.9375 -4.910156 5.9375 -4.640625 Z M 2.5 -1.96875 C 2.5 -1.851562 2.539062 -1.753906 2.625 -1.671875 C 2.707031 -1.597656 2.910156 -1.5625 3.234375 -1.5625 C 3.546875 -1.5625 3.742188 -1.597656 3.828125 -1.671875 C 3.921875 -1.753906 3.96875 -1.851562 3.96875 -1.96875 L 3.96875 -4.328125 C 3.96875 -4.429688 3.921875 -4.519531 3.828125 -4.59375 C 3.742188 -4.675781 3.546875 -4.71875 3.234375 -4.71875 C 2.910156 -4.71875 2.707031 -4.675781 2.625 -4.59375 C 2.539062 -4.519531 2.5 -4.429688 2.5 -4.328125 Z M 2.5 -1.96875 "/></g></g></g><g fill="#e0e0e0" fill-opacity="1"><g transform="translate(48.517108, 17.082556)"><g><path d="M 4.984375 0 L 0.921875 0 C 0.804688 0 0.722656 -0.0234375 0.671875 -0.078125 C 0.628906 -0.128906 0.609375 -0.207031 0.609375 -0.3125 L 0.609375 -5.984375 C 0.609375 -6.097656 0.628906 -6.175781 0.671875 -6.21875 C 0.722656 -6.269531 0.804688 -6.296875 0.921875 -6.296875 L 4.984375 -6.296875 C 5.085938 -6.296875 5.164062 -6.269531 5.21875 -6.21875 C 5.269531 -6.175781 5.296875 -6.097656 5.296875 -5.984375 L 5.296875 -4.96875 C 5.296875 -4.851562 5.269531 -4.769531 5.21875 -4.71875 C 5.164062 -4.664062 5.085938 -4.640625 4.984375 -4.640625 L 2.5625 -4.640625 L 2.5625 -3.96875 L 4.265625 -3.96875 C 4.378906 -3.96875 4.457031 -3.941406 4.5 -3.890625 C 4.550781 -3.847656 4.578125 -3.769531 4.578125 -3.65625 L 4.578125 -2.71875 C 4.578125 -2.613281 4.550781 -2.535156 4.5 -2.484375 C 4.457031 -2.429688 4.378906 -2.40625 4.265625 -2.40625 L 2.5625 -2.40625 L 2.5625 -1.65625 L 4.984375 -1.65625 C 5.085938 -1.65625 5.164062 -1.628906 5.21875 -1.578125 C 5.269531 -1.523438 5.296875 -1.445312 5.296875 -1.34375 L 5.296875 -0.3125 C 5.296875 -0.207031 5.269531 -0.128906 5.21875 -0.078125 C 5.164062 -0.0234375 5.085938 0 4.984375 0 Z M 4.984375 0 "/></g></g></g><g fill="#e0e0e0" fill-opacity="1"><g transform="translate(54.240931, 17.082556)"><g><path d="M 0.78125 0 C 0.664062 0 0.582031 -0.0234375 0.53125 -0.078125 C 0.488281 -0.128906 0.46875 -0.207031 0.46875 -0.3125 L 0.46875 -1.359375 C 0.46875 -1.460938 0.488281 -1.539062 0.53125 -1.59375 C 0.582031 -1.644531 0.664062 -1.671875 0.78125 -1.671875 L 1.640625 -1.671875 L 1.640625 -4.609375 L 0.78125 -4.609375 C 0.664062 -4.609375 0.582031 -4.632812 0.53125 -4.6875 C 0.488281 -4.738281 0.46875 -4.816406 0.46875 -4.921875 L 0.46875 -5.984375 C 0.46875 -6.097656 0.488281 -6.175781 0.53125 -6.21875 C 0.582031 -6.269531 0.664062 -6.296875 0.78125 -6.296875 L 4.5 -6.296875 C 4.613281 -6.296875 4.695312 -6.269531 4.75 -6.21875 C 4.800781 -6.175781 4.828125 -6.097656 4.828125 -5.984375 L 4.828125 -4.921875 C 4.828125 -4.816406 4.800781 -4.738281 4.75 -4.6875 C 4.695312 -4.632812 4.613281 -4.609375 4.5 -4.609375 L 3.65625 -4.609375 L 3.65625 -1.671875 L 4.5 -1.671875 C 4.613281 -1.671875 4.695312 -1.644531 4.75 -1.59375 C 4.800781 -1.539062 4.828125 -1.460938 4.828125 -1.359375 L 4.828125 -0.3125 C 4.828125 -0.207031 4.800781 -0.128906 4.75 -0.078125 C 4.695312 -0.0234375 4.613281 0 4.5 0 Z M 0.78125 0 "/></g></g></g><g fill="#e0e0e0" fill-opacity="1"><g transform="translate(59.53591, 17.082556)"><g><path d="M 4.796875 0 L 2.65625 0 C 1.925781 0 1.382812 -0.144531 1.03125 -0.4375 C 0.675781 -0.726562 0.5 -1.175781 0.5 -1.78125 L 0.5 -4.5 C 0.5 -5.113281 0.675781 -5.566406 1.03125 -5.859375 C 1.382812 -6.148438 1.925781 -6.296875 2.65625 -6.296875 L 4.796875 -6.296875 C 4.910156 -6.296875 4.988281 -6.269531 5.03125 -6.21875 C 5.082031 -6.175781 5.109375 -6.097656 5.109375 -5.984375 L 5.109375 -4.921875 C 5.109375 -4.816406 5.082031 -4.738281 5.03125 -4.6875 C 4.988281 -4.632812 4.910156 -4.609375 4.796875 -4.609375 L 3.03125 -4.609375 C 2.851562 -4.609375 2.71875 -4.570312 2.625 -4.5 C 2.539062 -4.425781 2.5 -4.316406 2.5 -4.171875 L 2.5 -2.09375 C 2.5 -1.945312 2.539062 -1.835938 2.625 -1.765625 C 2.71875 -1.703125 2.851562 -1.671875 3.03125 -1.671875 L 4.796875 -1.671875 C 4.910156 -1.671875 4.988281 -1.644531 5.03125 -1.59375 C 5.082031 -1.539062 5.109375 -1.460938 5.109375 -1.359375 L 5.109375 -0.3125 C 5.109375 -0.207031 5.082031 -0.128906 5.03125 -0.078125 C 4.988281 -0.0234375 4.910156 0 4.796875 0 Z M 4.796875 0 "/></g></g></g><g fill="#e0e0e0" fill-opacity="1"><g transform="translate(65.042925, 17.082556)"><g/></g></g><g fill="#e0e0e0" fill-opacity="1"><g transform="translate(67.012125, 17.082556)"><g/></g></g><g fill="#e0e0e0" fill-opacity="1"><g transform="translate(68.985867, 17.082556)"><g><path d="M 3.53125 0 L 0.765625 0 C 0.648438 0 0.566406 -0.0234375 0.515625 -0.078125 C 0.472656 -0.128906 0.453125 -0.207031 0.453125 -0.3125 L 0.453125 -1.34375 C 0.453125 -1.445312 0.472656 -1.523438 0.515625 -1.578125 C 0.566406 -1.628906 0.648438 -1.65625 0.765625 -1.65625 L 3.109375 -1.65625 C 3.191406 -1.65625 3.25 -1.675781 3.28125 -1.71875 C 3.320312 -1.769531 3.34375 -1.832031 3.34375 -1.90625 C 3.34375 -2.007812 3.320312 -2.082031 3.28125 -2.125 C 3.25 -2.175781 3.191406 -2.203125 3.109375 -2.203125 L 1.796875 -2.390625 C 1.390625 -2.441406 1.0625 -2.570312 0.8125 -2.78125 C 0.570312 -3 0.453125 -3.351562 0.453125 -3.84375 L 0.453125 -4.765625 C 0.453125 -5.253906 0.609375 -5.628906 0.921875 -5.890625 C 1.242188 -6.160156 1.6875 -6.296875 2.25 -6.296875 L 4.703125 -6.296875 C 4.816406 -6.296875 4.894531 -6.269531 4.9375 -6.21875 C 4.988281 -6.175781 5.015625 -6.097656 5.015625 -5.984375 L 5.015625 -4.9375 C 5.015625 -4.832031 4.988281 -4.753906 4.9375 -4.703125 C 4.894531 -4.648438 4.816406 -4.625 4.703125 -4.625 L 2.671875 -4.625 C 2.597656 -4.625 2.539062 -4.597656 2.5 -4.546875 C 2.457031 -4.503906 2.4375 -4.441406 2.4375 -4.359375 C 2.4375 -4.285156 2.457031 -4.222656 2.5 -4.171875 C 2.539062 -4.117188 2.597656 -4.09375 2.671875 -4.09375 L 3.96875 -3.90625 C 4.375 -3.851562 4.703125 -3.71875 4.953125 -3.5 C 5.210938 -3.289062 5.34375 -2.941406 5.34375 -2.453125 L 5.34375 -1.546875 C 5.34375 -1.046875 5.175781 -0.660156 4.84375 -0.390625 C 4.519531 -0.128906 4.082031 0 3.53125 0 Z M 3.53125 0 "/></g></g></g><g fill="#e0e0e0" fill-opacity="1"><g transform="translate(74.674679, 17.082556)"><g><path d="M 3.578125 0 L 2.15625 0 C 2.050781 0 1.972656 -0.0234375 1.921875 -0.078125 C 1.867188 -0.128906 1.84375 -0.207031 1.84375 -0.3125 L 1.84375 -4.609375 L 0.5625 -4.609375 C 0.445312 -4.609375 0.363281 -4.632812 0.3125 -4.6875 C 0.269531 -4.738281 0.25 -4.816406 0.25 -4.921875 L 0.25 -5.984375 C 0.25 -6.097656 0.269531 -6.175781 0.3125 -6.21875 C 0.363281 -6.269531 0.445312 -6.296875 0.5625 -6.296875 L 5.1875 -6.296875 C 5.289062 -6.296875 5.367188 -6.269531 5.421875 -6.21875 C 5.472656 -6.175781 5.5 -6.097656 5.5 -5.984375 L 5.5 -4.921875 C 5.5 -4.816406 5.472656 -4.738281 5.421875 -4.6875 C 5.367188 -4.632812 5.289062 -4.609375 5.1875 -4.609375 L 3.890625 -4.609375 L 3.890625 -0.3125 C 3.890625 -0.207031 3.863281 -0.128906 3.8125 -0.078125 C 3.769531 -0.0234375 3.691406 0 3.578125 0 Z M 3.578125 0 "/></g></g></g><g fill="#e0e0e0" fill-opacity="1"><g transform="translate(80.416008, 17.082556)"><g><path d="M 5.96875 -1.65625 C 5.96875 -1.382812 5.925781 -1.140625 5.84375 -0.921875 C 5.769531 -0.703125 5.628906 -0.515625 5.421875 -0.359375 C 5.222656 -0.203125 4.945312 -0.0820312 4.59375 0 C 4.25 0.0820312 3.804688 0.125 3.265625 0.125 C 2.722656 0.125 2.273438 0.0820312 1.921875 0 C 1.578125 -0.0820312 1.300781 -0.203125 1.09375 -0.359375 C 0.894531 -0.515625 0.753906 -0.703125 0.671875 -0.921875 C 0.597656 -1.140625 0.5625 -1.382812 0.5625 -1.65625 L 0.5625 -5.984375 C 0.5625 -6.097656 0.582031 -6.175781 0.625 -6.21875 C 0.675781 -6.269531 0.757812 -6.296875 0.875 -6.296875 L 2.25 -6.296875 C 2.363281 -6.296875 2.441406 -6.269531 2.484375 -6.21875 C 2.535156 -6.175781 2.5625 -6.097656 2.5625 -5.984375 L 2.5625 -2 C 2.5625 -1.875 2.601562 -1.769531 2.6875 -1.6875 C 2.78125 -1.613281 2.976562 -1.578125 3.28125 -1.578125 C 3.59375 -1.578125 3.789062 -1.613281 3.875 -1.6875 C 3.957031 -1.769531 4 -1.875 4 -2 L 4 -5.984375 C 4 -6.097656 4.023438 -6.175781 4.078125 -6.21875 C 4.128906 -6.269531 4.210938 -6.296875 4.328125 -6.296875 L 5.65625 -6.296875 C 5.757812 -6.296875 5.835938 -6.269531 5.890625 -6.21875 C 5.941406 -6.175781 5.96875 -6.097656 5.96875 -5.984375 Z M 5.96875 -1.65625 "/></g></g></g><g fill="#e0e0e0" fill-opacity="1"><g transform="translate(86.945015, 17.082556)"><g><path d="M 3.875 0 L 0.921875 0 C 0.804688 0 0.722656 -0.0234375 0.671875 -0.078125 C 0.628906 -0.128906 0.609375 -0.207031 0.609375 -0.3125 L 0.609375 -5.984375 C 0.609375 -6.097656 0.628906 -6.175781 0.671875 -6.21875 C 0.722656 -6.269531 0.804688 -6.296875 0.921875 -6.296875 L 3.875 -6.296875 C 4.601562 -6.296875 5.140625 -6.148438 5.484375 -5.859375 C 5.835938 -5.566406 6.015625 -5.117188 6.015625 -4.515625 L 6.015625 -1.78125 C 6.015625 -1.175781 5.835938 -0.726562 5.484375 -0.4375 C 5.140625 -0.144531 4.601562 0 3.875 0 Z M 2.59375 -4.625 L 2.59375 -1.65625 L 3.625 -1.65625 C 3.769531 -1.65625 3.875 -1.6875 3.9375 -1.75 C 4.007812 -1.820312 4.046875 -1.929688 4.046875 -2.078125 L 4.046875 -4.203125 C 4.046875 -4.347656 4.007812 -4.453125 3.9375 -4.515625 C 3.875 -4.585938 3.769531 -4.625 3.625 -4.625 Z M 2.59375 -4.625 "/></g></g></g><g fill="#e0e0e0" fill-opacity="1"><g transform="translate(93.474023, 17.082556)"><g><path d="M 3.796875 0 L 2.375 0 C 2.269531 0 2.191406 -0.0234375 2.140625 -0.078125 C 2.085938 -0.128906 2.0625 -0.207031 2.0625 -0.3125 L 2.0625 -1.4375 L 0.71875 -3.234375 C 0.59375 -3.410156 0.503906 -3.566406 0.453125 -3.703125 C 0.410156 -3.835938 0.390625 -4.039062 0.390625 -4.3125 L 0.390625 -5.984375 C 0.390625 -6.097656 0.414062 -6.175781 0.46875 -6.21875 C 0.519531 -6.269531 0.597656 -6.296875 0.703125 -6.296875 L 2.0625 -6.296875 C 2.164062 -6.296875 2.242188 -6.269531 2.296875 -6.21875 C 2.347656 -6.175781 2.375 -6.097656 2.375 -5.984375 L 2.375 -4.546875 C 2.375 -4.492188 2.375 -4.429688 2.375 -4.359375 C 2.382812 -4.296875 2.410156 -4.238281 2.453125 -4.1875 L 2.859375 -3.546875 C 2.878906 -3.492188 2.90625 -3.457031 2.9375 -3.4375 C 2.976562 -3.414062 3.019531 -3.40625 3.0625 -3.40625 L 3.15625 -3.40625 C 3.195312 -3.40625 3.234375 -3.414062 3.265625 -3.4375 C 3.296875 -3.457031 3.328125 -3.492188 3.359375 -3.546875 L 3.765625 -4.1875 C 3.804688 -4.238281 3.828125 -4.296875 3.828125 -4.359375 C 3.835938 -4.429688 3.84375 -4.492188 3.84375 -4.546875 L 3.84375 -5.984375 C 3.84375 -6.097656 3.863281 -6.175781 3.90625 -6.21875 C 3.957031 -6.269531 4.039062 -6.296875 4.15625 -6.296875 L 5.453125 -6.296875 C 5.566406 -6.296875 5.648438 -6.269531 5.703125 -6.21875 C 5.753906 -6.175781 5.78125 -6.097656 5.78125 -5.984375 L 5.78125 -4.3125 C 5.78125 -4.039062 5.753906 -3.835938 5.703125 -3.703125 C 5.660156 -3.566406 5.570312 -3.410156 5.4375 -3.234375 L 4.109375 -1.421875 L 4.109375 -0.3125 C 4.109375 -0.207031 4.082031 -0.128906 4.03125 -0.078125 C 3.988281 -0.0234375 3.910156 0 3.796875 0 Z M 3.796875 0 "/></g></g></g></svg>